<svg viewBox="0 0 16 14" id="icon-filter" xmlns="http://www.w3.org/2000/svg">
  <path fill-rule="evenodd" clip-rule="evenodd"
    d="M0 11a1 1 0 011-1h1.17a3.001 3.001 0 015.664.014c.054-.01.11-.014.166-.014h7a1 1 0 110 2H8c-.057 0-.112-.005-.166-.014A3.001 3.001 0 012.171 12H1a1 1 0 01-1-1zm5 1a1 1 0 110-2 1 1 0 010 2zm6-10a1 1 0 110 2 1 1 0 010-2zm0-2c1.306 0 2.418.835 2.83 2H15a1 1 0 110 2h-1.17a3.001 3.001 0 01-5.664-.014C8.112 3.996 8.056 4 8 4H1a1 1 0 110-2h7c.057 0 .112.005.166.014A3.001 3.001 0 0111 0z">
  </path>
</svg>