<svg viewBox="0 0 16 16" id="icon-remove" xmlns="http://www.w3.org/2000/svg">
  <path fill-rule="evenodd" clip-rule="evenodd"
    d="M6 1a1 1 0 011-1h2a1 1 0 011 1v1h3a1 1 0 110 2h-.008c.008.175.008.37.008.568V11.838c0 .528 0 .982-.03 1.357-.033.395-.104.789-.297 1.167a3 3 0 01-1.311 1.311c-.378.193-.772.264-1.167.296C9.82 16 9.365 16 8.839 16H7.16c-.527 0-.981 0-1.356-.03-.395-.033-.789-.104-1.167-.297a3 3 0 01-1.311-1.311c-.193-.378-.264-.772-.296-1.167A17.9 17.9 0 013 11.838V4.568c0-.198 0-.393.008-.568H3a1 1 0 010-2h3V1zm-.4 3c-.297 0-.459 0-.575.01l-.014.001v.014C5 4.14 5 4.303 5 4.6v7.2c0 .577 0 .949.024 1.232.022.272.06.373.085.422a1 1 0 00.437.437c.05.025.15.063.422.085C6.25 14 6.623 14 7.2 14h1.6c.577 0 .949 0 1.232-.024.272-.022.373-.06.422-.085a1 1 0 00.437-.437c.025-.05.063-.15.085-.422C11 12.75 11 12.377 11 11.8V4.6c0-.297 0-.459-.01-.575l-.001-.014h-.014A8.194 8.194 0 0010.4 4H5.6z">
  </path>
</svg>